<svg width="339" height="51" viewBox="0 0 339 51" fill="none" xmlns="http://www.w3.org/2000/svg">
<g clip-path="url(#clip0_4_118)">
<path d="M9.93835 51C8.12972 51 6.46723 50.5472 4.96917 49.6598C3.47111 48.7724 2.26536 47.5771 1.35191 46.0739C0.438457 44.5888 0 42.9407 0 41.1477V9.85227C0 8.05931 0.456726 6.41122 1.35191 4.92614C2.24709 3.44105 3.45285 2.24574 4.96917 1.3402C6.46723 0.45277 8.12972 0 9.93835 0H41.4524C43.2611 0 44.9235 0.45277 46.4581 1.3402C47.9745 2.24574 49.1985 3.42294 50.0937 4.92614C50.9888 6.41122 51.4456 8.05931 51.4456 9.85227V13.8185H41.9457V10.2688C41.9457 10.0334 41.8543 9.83416 41.6534 9.67117C41.4707 9.50817 41.2515 9.41761 41.014 9.41761H10.2855C10.048 9.41761 9.847 9.50817 9.68258 9.67117C9.51816 9.83416 9.42682 10.0334 9.42682 10.2688V40.7312C9.42682 40.9666 9.51816 41.1658 9.68258 41.3288C9.847 41.4918 10.048 41.5824 10.2855 41.5824H41.014C41.2515 41.5824 41.4707 41.4918 41.6534 41.3288C41.8361 41.1658 41.9457 40.9666 41.9457 40.7312V31.5309H30.29V22.1133H51.4456V41.1658C51.4456 42.9588 50.9888 44.6069 50.0937 46.092C49.1802 47.5771 47.9745 48.7724 46.4581 49.6779C44.9418 50.5835 43.2611 51.0181 41.4524 51.0181H9.93835V51Z" fill="#3B4529"/>
<path d="M103.951 32.201C105.467 31.3317 106.691 30.1364 107.586 28.6151C108.481 27.1119 108.938 25.4457 108.938 23.6527V9.9066C108.938 8.11364 108.481 6.46555 107.586 4.98047C106.673 3.49538 105.467 2.30007 103.951 1.39453C102.434 0.488992 100.754 0.0543327 98.945 0.0543327H57.5109V50.9819H66.9377V33.5593L83.7635 33.5231L98.5248 50.9819H108.81V48.3558L96.1133 33.4869H98.9633C100.772 33.4869 102.434 33.0522 103.969 32.1648L103.951 32.201ZM67.7963 24.0874C67.5588 24.0874 67.3579 24.0149 67.1935 23.87C67.029 23.7251 66.9377 23.544 66.9377 23.3086V10.2688C66.9377 10.0334 67.0108 9.83416 67.1935 9.67116C67.3579 9.50817 67.5588 9.41761 67.7963 9.41761H98.5248C98.7623 9.41761 98.9816 9.50817 99.1643 9.67116C99.3469 9.83416 99.4566 10.0334 99.4566 10.2688V23.3086C99.4566 23.544 99.3652 23.7251 99.1643 23.87C98.9816 24.0149 98.7623 24.0874 98.5248 24.0874H67.7963Z" fill="#3B4529"/>
<path d="M165.115 4.92614C164.202 3.44105 162.996 2.24574 161.48 1.3402C159.945 0.434659 158.283 0 156.474 0H124.96C123.151 0 121.489 0.45277 119.991 1.3402C118.493 2.24574 117.287 3.42294 116.392 4.92614C115.478 6.41122 115.04 8.0593 115.04 9.85227V51H124.467V33.8672H156.986V51H166.486V9.85227C166.486 8.0593 166.029 6.41122 165.134 4.92614H165.115ZM156.967 24.5039H124.449V10.2688C124.449 10.0334 124.54 9.83416 124.704 9.67116C124.869 9.50817 125.07 9.41761 125.307 9.41761H156.036C156.273 9.41761 156.492 9.50817 156.675 9.67116C156.858 9.83416 156.967 10.0334 156.967 10.2688V24.5039Z" fill="#3B4529"/>
<path d="M235.013 49.6598C233.515 48.7724 232.309 47.5771 231.414 46.0739C230.5 44.5888 230.062 42.9407 230.062 41.1477V0H239.489V40.7312C239.489 40.9666 239.58 41.1658 239.744 41.3288C239.909 41.4918 240.11 41.5824 240.347 41.5824H271.076C271.313 41.5824 271.533 41.4918 271.715 41.3288C271.898 41.1658 272.008 40.9666 272.008 40.7312V0H281.507V41.1477C281.507 42.9407 281.051 44.5888 280.156 46.0739C279.242 47.5589 278.055 48.7543 276.538 49.6598C275.04 50.5653 273.378 51 271.569 51H239.982C238.173 51 236.511 50.5472 235.013 49.6598Z" fill="#3B4529"/>
<path d="M297.493 51C295.684 51 294.022 50.5472 292.524 49.6598C291.025 48.7724 289.82 47.5771 288.906 46.0739C287.993 44.5888 287.554 42.9407 287.554 41.1477V37.2539H296.981V40.7312C296.981 40.9666 297.073 41.1658 297.237 41.3288C297.401 41.4918 297.602 41.5824 297.84 41.5824H328.641C328.879 41.5824 329.08 41.4918 329.244 41.3288C329.409 41.1658 329.5 40.9666 329.5 40.7312V31.0238C329.5 30.7884 329.409 30.6072 329.244 30.4624C329.08 30.3175 328.879 30.245 328.641 30.245H297.493C295.684 30.245 294.022 29.7923 292.524 28.9048C291.025 28.0174 289.82 26.8221 288.906 25.3189C287.993 23.8338 287.554 22.1676 287.554 20.3203V9.83416C287.554 8.04119 288.011 6.39311 288.906 4.90803C289.801 3.42294 291.007 2.22763 292.524 1.32209C294.022 0.45277 295.684 0 297.493 0H329.08C330.889 0 332.551 0.45277 334.049 1.3402C335.547 2.24574 336.753 3.42294 337.666 4.92614C338.562 6.41122 339.018 8.05931 339.018 9.85227V13.7461H329.518V10.2688C329.518 10.0334 329.427 9.83416 329.263 9.67117C329.098 9.50817 328.897 9.41761 328.66 9.41761H297.858C297.621 9.41761 297.42 9.50817 297.255 9.67117C297.091 9.83416 296.999 10.0334 296.999 10.2688V19.9762C296.999 20.2116 297.091 20.3928 297.255 20.5376C297.42 20.6825 297.621 20.755 297.858 20.755H329.08C330.889 20.755 332.551 21.2077 334.049 22.0952C335.547 23.0007 336.753 24.1779 337.666 25.6811C338.562 27.1662 339.018 28.8324 339.018 30.6797V41.1658C339.018 42.9588 338.562 44.6069 337.666 46.092C336.753 47.5771 335.565 48.7724 334.049 49.6779C332.551 50.5835 330.889 51.0181 329.08 51.0181H297.493V51Z" fill="#3B4529"/>
<path d="M222.626 4.92614C221.713 3.44105 220.507 2.24574 218.991 1.35831C217.456 0.45277 215.794 0 213.985 0H172.533V51H213.985C215.794 51 217.456 50.5472 218.991 49.6598C220.507 48.7543 221.731 47.5771 222.626 46.0739C223.522 44.5888 223.978 42.9407 223.978 41.1477V9.85227C223.978 8.0593 223.522 6.41122 222.626 4.92614ZM214.478 40.7312C214.478 40.9666 214.387 41.1658 214.186 41.3288C214.003 41.4918 213.784 41.5824 213.547 41.5824H182.745C182.508 41.5824 182.307 41.4918 182.142 41.3288C181.978 41.1658 181.886 40.9666 181.886 40.7312V10.2688C181.886 10.0334 181.978 9.83416 182.142 9.67116C182.307 9.50817 182.508 9.41761 182.745 9.41761H213.547C213.784 9.41761 214.003 9.50817 214.186 9.67116C214.369 9.83416 214.478 10.0334 214.478 10.2688V40.7312Z" fill="#3B4529"/>
<path d="M199.9 12.4059H196.465V38.6122H199.9V12.4059Z" fill="#9DCA3E"/>
<path d="M211.409 24.4858H184.974V27.8906H211.409V24.4858Z" fill="#9DCA3E"/>
</g>
<defs>
<clipPath id="clip0_4_118">
<rect width="339" height="51" fill="white"/>
</clipPath>
</defs>
</svg>
